# xmcd
#
# Track frame offsets:
#	150
#	18734
#	32844
#	47563
#	62888
#	78180
#	95917
#	109689
#	125953
#	145098
#	159742
#	172654
#	188239
#	205761
#	222545
#	236372
#
# Disc length: 3440 seconds
#
# Revision: 0
# Processed by: cddbd v1.4PL0 Copyright (c) Steve Scherf et al.
# Submitted via: audiograbber 1.81.02
#
DISCID=e40d6e10
DTITLE=Faith Hill - Piece Of My Heart
DYEAR=1996
DGENRE=Country
TTITLE0=Piece Of My Heart
TTITLE1=Bed Of Roses
TTITLE2=You Will Be Mine
TTITLE3=It Matters To Me
TTITLE4=Take Me As I Am
TTITLE5=You Can't Lose Me
TTITLE6=Just About Now
TTITLE7=Where You Lead
TTITLE8=Since I Laid Eyes On You
TTITLE9=Let's Go To Vegas
TTITLE10=Wild One
TTITLE11=Keep Walkin' On
TTITLE12=I've Got This Friend
TTITLE13=Someone Else's Dream
TTITLE14=Go The Distance
TTITLE15=I Would Be Stronger Than That
EXTD=
EXTT0=Faith Hill
EXTT1=Faith Hill
EXTT2=Faith Hill
EXTT3=Faith Hill
EXTT4=Faith Hill
EXTT5=Faith Hill
EXTT6=Faith Hill
EXTT7=Faith Hill
EXTT8=Faith Hill
EXTT9=Faith Hill
EXTT10=Faith Hill
EXTT11=Faith Hill
EXTT12=Faith Hill
EXTT13=Faith Hill
EXTT14=Faith Hill
EXTT15=Faith Hill
PLAYORDER=
